<?xml version="1.0" encoding="UTF-8" standalone="no"?>
<svg
   xmlns:dc="http://purl.org/dc/elements/1.1/"
   xmlns:cc="http://creativecommons.org/ns#"
   xmlns:rdf="http://www.w3.org/1999/02/22-rdf-syntax-ns#"
   xmlns:svg="http://www.w3.org/2000/svg"
   xmlns="http://www.w3.org/2000/svg"
   xmlns:sodipodi="http://sodipodi.sourceforge.net/DTD/sodipodi-0.dtd"
   xmlns:inkscape="http://www.inkscape.org/namespaces/inkscape"
   width="360pt"
   version="1.1"
   height="154pt"
   viewBox="0 0 360 154"
   id="svg73"
   sodipodi:docname="ibuprofen.svg"
   inkscape:version="0.92.5 (2060ec1f9f, 2020-04-08)">
  <metadata
     id="metadata77">
    <rdf:RDF>
      <cc:Work
         rdf:about="">
        <dc:format>image/svg+xml</dc:format>
        <dc:type
           rdf:resource="http://purl.org/dc/dcmitype/StillImage" />
      </cc:Work>
    </rdf:RDF>
  </metadata>
  <sodipodi:namedview
     pagecolor="#ffffff"
     bordercolor="#666666"
     borderopacity="1"
     objecttolerance="10"
     gridtolerance="10"
     guidetolerance="10"
     inkscape:pageopacity="0"
     inkscape:pageshadow="2"
     inkscape:window-width="1920"
     inkscape:window-height="1016"
     id="namedview75"
     showgrid="false"
     inkscape:zoom="2.2568491"
     inkscape:cx="281.00661"
     inkscape:cy="30.451507"
     inkscape:window-x="1680"
     inkscape:window-y="27"
     inkscape:window-maximized="1"
     inkscape:current-layer="Gruppe1" />
  <defs
     id="defs5">
    <clipPath
       id="Clip0">
      <path
         d="M0 0 L360 0 L360 154 L0 154 L0 0 Z"
         transform="translate(0, 0)"
         id="path2" />
    </clipPath>
  </defs>
  <g
     id="Hintergrund">
    <g
       id="Gruppe1"
       clip-path="url(#Clip0)">
      <path
         style="fill:#000000; fill-rule:evenodd;stroke:none;"
         d="M11.2266 9.528 L11.2266 17.493 L13.4609 17.493 L13.4609 0 L11.2266 0 L11.2266 7.559 L2.23047 7.559 L2.23047 0 L0 0 L0 17.493 L2.23047 17.493 L2.23047 9.528 L11.2266 9.528 Z"
         transform="translate(4.0293, 128.607)"
         id="path7" />
      <path
         style="fill:#000000; fill-rule:evenodd;stroke:none;"
         d="M3.4062 6.926 L3.6055 6.926 L4.2734 6.907 C6.0234 6.907 6.9219 7.7 6.9219 9.235 C6.9219 10.836 5.9336 11.793 4.2734 11.793 C2.543 11.793 1.6953 10.926 1.5859 9.071 L0 9.071 C0.0703 10.098 0.25 10.766 0.5586 11.344 C1.207 12.571 2.4687 13.2 4.2187 13.2 C6.8515 13.2 8.5469 11.633 8.5469 9.215 C8.5469 7.59 7.914 6.692 6.3828 6.168 C7.5742 5.68 8.168 4.797 8.168 3.516 C8.168 1.317 6.707 0 4.2734 0 C1.6953 0 0.3242 1.407 0.2695 4.129 L1.8555 4.129 C1.875 3.356 1.9453 2.922 2.1445 2.524 C2.5039 1.821 3.3008 1.387 4.289 1.387 C5.6992 1.387 6.5469 2.2 6.5469 3.571 C6.5469 4.473 6.2187 5.012 5.5156 5.301 C5.0859 5.481 4.5234 5.555 3.4062 5.571 L3.4062 6.926 Z"
         transform="translate(19.9424, 137.814)"
         id="path9" />
      <path
         style="fill:#000000; fill-rule:evenodd;stroke:none;"
         d="M14.7305 5.711 C14.0352 1.875 11.8281 0 7.9883 0 C5.6367 0 3.7422 0.746 2.4453 2.184 C0.8633 3.914 0 6.411 0 9.239 C0 12.118 0.8867 14.59 2.5195 16.293 C3.8867 17.684 5.6133 18.332 7.8945 18.332 C12.1641 18.332 14.5625 16.032 15.0899 11.399 L12.7891 11.399 C12.5977 12.598 12.3555 13.414 11.9961 14.11 C11.2774 15.551 9.7891 16.368 7.918 16.368 C4.4375 16.368 2.2305 13.582 2.2305 9.215 C2.2305 4.731 4.3164 1.969 7.7266 1.969 C9.1406 1.969 10.461 2.379 11.1797 3.075 C11.8281 3.672 12.1875 4.395 12.4531 5.711 L14.7305 5.711 Z"
         transform="translate(30.5244, 128.318)"
         id="path11" />
      <path
         style="fill:#000000; fill-rule:nonzero;stroke:none;"
         d="M31.7998 0 L32.6494 0.45 L32.6494 1.45 L0.8496 19.85 L0 18.35 L31.7998 0 Z"
         transform="translate(46.7002, 112.35)"
         id="path13" />
      <path
         style="fill:#000000; fill-rule:nonzero;stroke:none;"
         d="M34.4004 19.35 L34.4004 21.3 L0 1.45 L0 0.45 L0.8506 0 L34.4004 19.35 Z"
         transform="translate(79.3496, 112.35)"
         id="path15" />
      <path
         style="fill:#000000; fill-rule:nonzero;stroke:none;"
         d="M33.5 0 L34.35 0.45 L34.35 1.45 L0 21.3 L0 19.35 L33.5 0 Z"
         transform="translate(113.75, 112.35)"
         id="path17" />
      <path
         style="fill:#000000; fill-rule:evenodd;stroke:none;"
         d="M14.7305 5.7109 C14.0352 1.875 11.8282 0 7.9883 0 C5.6368 0 3.7422 0.7461 2.4454 2.1836 C0.8633 3.914 0 6.4101 0 9.2382 C0 12.1171 0.8868 14.5898 2.5196 16.2929 C3.8868 17.6836 5.6133 18.332 7.8946 18.332 C12.1641 18.332 14.5625 16.0312 15.0899 11.3984 L12.7891 11.3984 C12.5977 12.5976 12.3555 13.414 11.9961 14.1093 C11.2774 15.5507 9.7891 16.3671 7.918 16.3671 C4.4375 16.3671 2.2305 13.582 2.2305 9.2148 C2.2305 4.7304 4.3164 1.9687 7.7266 1.9687 C9.1407 1.9687 10.461 2.3789 11.1797 3.0742 C11.8282 3.6718 12.1875 4.3945 12.4532 5.7109 L14.7305 5.7109 Z"
         transform="translate(71.8525, 64.8184)"
         id="path19" />
      <path
         style="fill:#000000; fill-rule:evenodd;stroke:none;"
         d="M11.2265 9.5274 L11.2265 17.4922 L13.4605 17.4922 L13.4605 0 L11.2265 0 L11.2265 7.5586 L2.2305 7.5586 L2.2305 0 L0 0 L0 17.4922 L2.2305 17.4922 L2.2305 9.5274 L11.2265 9.5274 Z"
         transform="translate(90.0195, 65.1074)"
         id="path21" />
      <path
         style="fill:#000000; fill-rule:evenodd;stroke:none;"
         d="M3.406 6.9257 L3.605 6.9257 L4.273 6.9062 C6.023 6.9062 6.921 7.6992 6.921 9.2343 C6.921 10.8359 5.933 11.7929 4.273 11.7929 C2.543 11.7929 1.695 10.9257 1.586 9.0703 L0 9.0703 C0.07 10.0976 0.25 10.7656 0.558 11.3437 C1.207 12.5703 2.468 13.1992 4.218 13.1992 C6.851 13.1992 8.546 11.6328 8.546 9.2148 C8.546 7.5898 7.914 6.6914 6.382 6.1679 C7.574 5.6796 8.168 4.7968 8.168 3.5156 C8.168 1.3164 6.707 0 4.273 0 C1.695 0 0.324 1.4062 0.269 4.1289 L1.855 4.1289 C1.875 3.3554 1.945 2.9218 2.144 2.5234 C2.504 1.8203 3.3 1.3867 4.289 1.3867 C5.699 1.3867 6.546 2.1992 6.546 3.5703 C6.546 4.4726 6.218 5.0117 5.515 5.3007 C5.086 5.4804 4.523 5.5546 3.406 5.5703 L3.406 6.9257 Z"
         transform="translate(105.933, 74.3145)"
         id="path23" />
      <path
         style="fill:#000000; fill-rule:nonzero;stroke:none;"
         d="M0 0 L1.7002 0 L1.7002 27.2504 L0.8496 27.7004 L0 27.2504 L0 0 Z"
         transform="translate(78.5, 85.0996)"
         id="path25" />
      <path
         style="fill:#000000; fill-rule:nonzero;stroke:none;"
         d="M34.35 19.35 L34.35 21.3 L0 1.45 L0 0.45 L0.85 0 L34.35 19.35 Z"
         transform="translate(148.1, 112.35)"
         id="path27" />
      <path
         style="fill:#000000; fill-rule:nonzero;stroke:none;"
         d="M29.25 16.4 L28.4 17.9 L0 1.45 L0.85 0 L29.25 16.4 Z"
         transform="translate(153.65, 108.65)"
         id="path29" />
      <path
         style="fill:#000000; fill-rule:nonzero;stroke:none;"
         d="M33.55 0 L35.25 0.95 L0 21.3 L0 19.35 L33.55 0 Z"
         transform="translate(182.45, 112.35)"
         id="path31" />
      <path
         style="fill:#000000; fill-rule:nonzero;stroke:none;"
         d="M0 0.5 L0.85 0 L1.7 0.5 L1.7 40.1496 L0 39.1996 L0 0.5 Z"
         transform="translate(216, 73.1504)"
         id="path33" />
      <path
         style="fill:#000000; fill-rule:nonzero;stroke:none;"
         d="M0 0 L1.7 0 L1.7 32.8004 L0 32.8004 L0 0 Z"
         transform="translate(210.05, 76.5996)"
         id="path35" />
      <path
         style="fill:#000000; fill-rule:nonzero;stroke:none;"
         d="M0 2 L0 0 L34.4 19.8506 L34.4 20.8506 L33.55 21.3506 L0 2 Z"
         transform="translate(182.45, 52.2998)"
         id="path37" />
      <path
         style="fill:#000000; fill-rule:nonzero;stroke:none;"
         d="M1.7 21.3506 L0 20.3506 L35.2 0 L35.2 2 L1.7 21.3506 Z"
         transform="translate(147.25, 52.2998)"
         id="path39" />
      <path
         style="fill:#000000; fill-rule:nonzero;stroke:none;"
         d="M0.85 17.8496 L0 16.3994 L28.4 0 L29.25 1.4502 L0.85 17.8496 Z"
         transform="translate(153.65, 59.4502)"
         id="path41" />
      <path
         style="fill:#000000; fill-rule:nonzero;stroke:none;"
         d="M1.7 39.6996 L0.85 40.1496 L0 39.6996 L0 0 L1.7 1 L1.7 39.6996 Z"
         transform="translate(147.25, 72.6504)"
         id="path43" />
      <path
         style="fill:#000000; fill-rule:nonzero;stroke:none;"
         d="M33.5 0 L34.35 0.5 L34.35 1.5 L0.85 20.8506 L0 20.3506 L0 19.3506 L33.5 0 Z"
         transform="translate(216.85, 52.7998)"
         id="path45" />
      <path
         style="fill:#000000; fill-rule:nonzero;stroke:none;"
         d="M34.4 19.3506 L34.4 21.2998 L0 1.5 L0 0.5 L0.85 0 L34.4 19.3506 Z"
         transform="translate(251.2, 52.7998)"
         id="path47" />
      <path
         style="fill:#000000; fill-rule:evenodd;stroke:none;"
         d="M14.731 5.71095 C14.035 1.875 11.828 0 7.988 0 C5.637 0 3.742 0.7461 2.445 2.1836 C0.863 3.91407 0 6.41015 0 9.23825 C0 12.1171 0.887 14.5899 2.52 16.2929 C3.887 17.6836 5.613 18.332 7.895 18.332 C12.164 18.332 14.563 16.0313 15.09 11.3985 L12.789 11.3985 C12.598 12.5976 12.356 13.414 11.996 14.1093 C11.277 15.5507 9.789 16.3671 7.918 16.3671 C4.438 16.3671 2.231 13.582 2.231 9.21485 C2.231 4.73047 4.317 1.96875 7.727 1.96875 C9.141 1.96875 10.461 2.37891 11.18 3.07422 C11.828 3.67188 12.188 4.39454 12.453 5.71095 L14.731 5.71095 Z"
         transform="translate(243.702, 5.26855)"
         id="path49" />
      <path
         style="fill:#000000; fill-rule:evenodd;stroke:none;"
         d="M11.227 9.52738 L11.227 17.4922 L13.461 17.4922 L13.461 0 L11.227 0 L11.227 7.55858 L2.231 7.55858 L2.231 0 L0 0 L0 17.4922 L2.231 17.4922 L2.231 9.52738 L11.227 9.52738 Z"
         transform="translate(261.869, 5.55762)"
         id="path51" />
      <path
         style="fill:#000000; fill-rule:evenodd;stroke:none;"
         d="M3.406 6.9258 L3.606 6.9258 L4.274 6.9063 C6.024 6.9063 6.922 7.6993 6.922 9.2344 C6.922 10.836 5.934 11.793 4.274 11.793 C2.543 11.793 1.696 10.9258 1.586 9.0704 L0 9.0704 C0.071 10.0977 0.25 10.7657 0.559 11.3438 C1.207 12.5704 2.469 13.1993 4.219 13.1993 C6.852 13.1993 8.547 11.6329 8.547 9.2149 C8.547 7.5899 7.914 6.6915 6.383 6.168 C7.574 5.6797 8.168 4.7969 8.168 3.5157 C8.168 1.3165 6.707 0 4.274 0 C1.696 0 0.324 1.4063 0.27 4.129 L1.856 4.129 C1.875 3.3555 1.946 2.9219 2.145 2.5235 C2.504 1.8204 3.301 1.3868 4.289 1.3868 C5.699 1.3868 6.547 2.1993 6.547 3.5704 C6.547 4.4727 6.219 5.0118 5.516 5.3008 C5.086 5.4805 4.524 5.5547 3.406 5.5704 L3.406 6.9258 Z"
         transform="translate(277.782, 14.7646)"
         id="path53" />
      <path
         style="fill:#000000; fill-rule:nonzero;stroke:none;"
         d="M0 0 L1.7 0 L1.7 27.25 L0.85 27.75 L0 27.25 L0 0 Z"
         transform="translate(250.35, 25.5498)"
         id="path55" />
      <path
         style="fill:#000000; fill-rule:evenodd;stroke:none;"
         d="M8.422 0 C3.41 0 0 3.695 0 9.168 C0 14.66 3.383 18.332 8.449 18.332 C10.582 18.332 12.453 17.683 13.871 16.484 C15.766 14.879 16.895 12.168 16.895 9.312 C16.895 3.672 13.559 0 8.422 0 Z M8.422 1.969 C12.215 1.969 14.66 4.824 14.66 9.261 C14.66 13.488 12.141 16.367 8.449 16.367 C4.703 16.367 2.235 13.488 2.235 9.168 C2.235 4.847 4.703 1.969 8.422 1.969 Z"
         transform="translate(277.16, 104.469)"
         id="path57" />
      <path
         style="fill:#000000; fill-rule:nonzero;stroke:none;"
         d="M1.7 31.1496 L0 31.1496 L0 0 L1.7 0 L1.7 31.1496 Z"
         transform="translate(287.7, 71.4004)"
         id="path59" />
      <path
         style="fill:#000000; fill-rule:nonzero;stroke:none;"
         d="M1.7 31.1496 L0 31.1496 L0 0 L1.7 0 L1.7 31.1496 Z"
         transform="translate(281.75, 71.4004)"
         id="path61" />
      <path
         style="fill:#000000; fill-rule:evenodd;stroke:none;"
         d="M8.422 0 C3.41 0 0 3.6953 0 9.1679 C0 14.6601 3.383 18.332 8.449 18.332 C10.582 18.332 12.453 17.6836 13.871 16.4843 C15.766 14.8789 16.894 12.1679 16.894 9.3125 C16.894 3.6718 13.559 0 8.422 0 Z M8.422 1.9687 C12.215 1.9687 14.66 4.8242 14.66 9.2617 C14.66 13.4882 12.141 16.3671 8.449 16.3671 C4.703 16.3671 2.234 13.4882 2.234 9.1679 C2.234 4.8476 4.703 1.9687 8.422 1.9687 Z"
         transform="translate(322.21, 38.8184)"
         id="path63" />
      <path
         style="fill:#000000; fill-rule:evenodd;stroke:none;"
         d="M11.226 9.5274 L11.226 17.4922 L13.461 17.4922 L13.461 0 L11.226 0 L11.226 7.5586 L2.23 7.5586 L2.23 0 L0 0 L0 17.4922 L2.23 17.4922 L2.23 9.5274 L11.226 9.5274 Z"
         transform="translate(341.964, 39.1074)"
         id="path65" />
      <path
         style="fill:#000000; fill-rule:nonzero;stroke:none;"
         d="M0 22.0996 L0 20.1504 L34.9 0 L35.75 1.4502 L0 22.0996 Z"
         transform="translate(285.6, 52)"
         id="path67" />
    </g>
  </g>
</svg>
